<?xml version="1.0" encoding="UTF-8" standalone="no"?>
<svg
   aria-hidden="true"
   focusable="false"
   data-prefix="fas"
   data-icon="search"
   class="svg-inline--fa fa-search fa-w-16"
   role="img"
   viewBox="0 0 512 512"
   version="1.1"
   id="svg19"
   sodipodi:docname="search-solid.svg"
   inkscape:version="1.1.1 (3bf5ae0d25, 2021-09-20)"
   xmlns:inkscape="http://www.inkscape.org/namespaces/inkscape"
   xmlns:sodipodi="http://sodipodi.sourceforge.net/DTD/sodipodi-0.dtd"
   xmlns="http://www.w3.org/2000/svg"
   xmlns:svg="http://www.w3.org/2000/svg">
  <defs
     id="defs23" />
  <sodipodi:namedview
     id="namedview21"
     pagecolor="#ffffff"
     bordercolor="#666666"
     borderopacity="1.0"
     inkscape:pageshadow="2"
     inkscape:pageopacity="0.0"
     inkscape:pagecheckerboard="0"
     showgrid="false"
     inkscape:zoom="2.2832031"
     inkscape:cx="256"
     inkscape:cy="256"
     inkscape:window-width="2560"
     inkscape:window-height="1377"
     inkscape:window-x="-8"
     inkscape:window-y="-8"
     inkscape:window-maximized="1"
     inkscape:current-layer="svg19" />
  <path
     fill="currentColor"
     d="M505 442.7L405.3 343c-4.5-4.5-10.6-7-17-7H372c27.6-35.3 44-79.7 44-128C416 93.1 322.9 0 208 0S0 93.1 0 208s93.1 208 208 208c48.3 0 92.7-16.4 128-44v16.3c0 6.4 2.5 12.5 7 17l99.7 99.7c9.4 9.4 24.6 9.4 33.9 0l28.3-28.3c9.4-9.4 9.4-24.6.1-34zM208 336c-70.7 0-128-57.2-128-128 0-70.7 57.2-128 128-128 70.7 0 128 57.2 128 128 0 70.7-57.2 128-128 128z"
     id="path17" />
  <path
     style="fill:#ececec;stroke-width:0.437981"
     d="m 456.13016,511.5459 c -3.13183,-0.47543 -6.52321,-1.82064 -9.34297,-3.70593 -1.22999,-0.82231 -25.71551,-25.00698 -54.41233,-53.74371 -48.06157,-48.12834 -52.28408,-52.47302 -53.54602,-55.0954 -2.17754,-4.52502 -2.66209,-7.80294 -2.67068,-18.06673 -0.004,-4.99846 -0.0908,-9.08811 -0.1925,-9.08811 -0.10169,0 -1.92478,1.31635 -4.05132,2.92521 -24.86563,18.81246 -56.95362,32.56626 -88.61579,37.98317 -13.21272,2.26049 -18.38419,2.64904 -35.25749,2.64904 -16.86883,0 -22.0285,-0.38744 -35.25748,-2.6475 C 111.99654,402.37099 58.517619,364.89883 27.635652,311.05219 1.8272287,266.05193 -6.116211,212.54024 5.4602347,161.66555 22.773609,85.578921 82.263198,25.014846 157.99945,6.3712084 177.33553,1.6113354 195.98316,-0.25569791 216.58169,0.50585236 276.13385,2.7075609 332.61466,31.263726 370.02987,78.0878 c 56.33278,70.49886 61.1026,168.38747 11.86357,243.46981 -2.47726,3.77747 -5.81563,8.60621 -7.41858,10.73054 l -2.91446,3.86241 11.09234,0.2446 c 8.89533,0.19616 11.4679,0.38993 12.98848,0.97828 5.8178,2.25108 4.64976,1.15002 59.46406,56.05371 40.67982,40.74616 52.83919,53.16943 53.75694,54.92345 1.50118,2.86913 2.91879,8.36251 2.91879,11.31065 0,2.95747 -1.4205,8.45023 -2.9251,11.31064 -0.8672,1.64865 -5.73668,6.84048 -17.85733,19.03935 -9.16572,9.22494 -17.59843,17.37375 -18.73937,18.10851 -4.38051,2.82112 -10.93836,4.21417 -16.12905,3.42615 z M 221.83747,335.45413 c 37.5688,-3.87598 72.29755,-25.01788 93.10395,-56.67911 13.46732,-20.49329 20.34225,-42.35492 21.07427,-67.01412 0.392,-13.20492 -0.8331,-24.26922 -4.03911,-36.47872 -12.81536,-48.80489 -53.33587,-85.676219 -103.07315,-93.790609 -34.9293,-5.698542 -69.84867,2.937593 -98.54821,24.372589 -6.10072,4.55648 -18.66403,16.92088 -23.27075,22.90231 -14.974282,19.44281 -23.754876,41.04506 -26.525685,65.25919 -0.875279,7.64907 -0.653223,24.73609 0.413012,31.78054 4.424451,29.23175 17.164272,54.26066 37.773683,74.21091 6.51232,6.30404 11.03607,9.95196 18.56162,14.96797 6.377,4.25047 19.04208,10.72638 25.89751,13.24191 18.62897,6.83574 38.58478,9.29551 58.63286,7.22714 z"
     id="path327" />
  <path
     style="fill:#ececec;stroke-width:0.437981"
     d="m 453.7485,510.74448 c -5.77465,-1.65933 -5.02881,-0.97888 -48.54982,-44.29452 -22.62997,-22.52318 -46.56084,-46.54877 -53.17973,-53.39019 -15.6216,-16.14682 -15.11265,-15.10327 -15.66817,-32.12564 -0.16312,-4.99846 -0.4251,-9.08811 -0.58217,-9.08811 -0.15707,0 -2.83791,1.8573 -5.95741,4.12732 -27.84872,20.26522 -60.64416,33.16113 -97.0242,38.1521 -6.83114,0.93717 -31.56732,1.35695 -41.17023,0.69867 -20.18328,-1.38355 -43.77962,-7.06137 -63.03196,-15.16694 C 72.90534,376.21513 30.381045,330.62326 11.363982,273.98036 3.9355468,251.85454 0.65106638,231.49815 0.6614906,207.64897 0.66814292,192.42935 1.6993644,181.86183 4.5980451,167.30881 14.140212,119.40173 40.323936,76.535446 78.849336,45.749442 141.93974,-4.6666781 229.38221,-13.69332 301.33105,22.782769 c 46.42454,23.535966 81.90483,62.878567 100.51645,111.458461 6.54678,17.08836 10.65099,34.38411 12.78352,53.87169 0.89042,8.13692 0.75501,34.22067 -0.21942,42.26518 -3.48217,28.74722 -11.7584,54.53532 -25.23094,78.61762 -3.20753,5.73348 -12.25531,19.65032 -15.94577,24.52695 l -1.98869,2.62789 11.68742,0.47467 c 11.2708,0.45774 11.77483,0.51631 14.13947,1.64285 1.34863,0.6425 4.00937,2.47328 5.91275,4.06839 4.18329,3.50578 96.95194,96.2881 102.27757,102.29265 4.81328,5.42685 5.86895,8.18136 5.84512,15.25112 -0.0188,5.53026 -1.06499,9.00196 -3.82817,12.70145 -0.98953,1.3249 -9.10305,9.72354 -18.02993,18.66365 -17.57282,17.59883 -17.88094,17.84646 -24.22645,19.46936 -4.01988,1.02812 -7.76681,1.03802 -11.27548,0.0298 z M 219.07623,335.89777 c 54.59922,-4.59314 100.56251,-43.81622 113.54096,-96.89095 2.65856,-10.87207 3.27004,-16.66224 3.29332,-31.18475 0.017,-10.57206 -0.13293,-14.1236 -0.76705,-18.17622 -3.67596,-23.49307 -12.78032,-44.44607 -26.96978,-62.0689 -20.38428,-25.3166 -48.80482,-41.646711 -81.08044,-46.587883 -7.64183,-1.169909 -23.08994,-1.603778 -30.94695,-0.869165 -17.38365,1.625339 -34.79561,6.944432 -49.86058,15.231662 -6.4068,3.524378 -14.76626,9.129016 -19.27117,12.920456 -6.28445,5.28914 -18.49808,18.01412 -22.23547,23.1664 -12.674545,17.47286 -20.206787,35.66293 -23.83081,57.55046 -1.167132,7.04897 -1.160409,31.62069 0.01047,38.32335 4.659992,26.67567 14.862825,48.08141 31.94019,67.01112 11.95162,13.248 25.94434,23.29911 43.58752,31.30935 18.37748,8.34363 41.11065,12.07199 62.58978,10.26507 z"
     id="path366" />
  <path
     style="fill:#ffffff;stroke-width:0.437981"
     d="m 453.7485,510.74448 c -5.86632,-1.6857 -4.58181,-0.49951 -54.52119,-50.34887 -25.89974,-25.85304 -49.83759,-49.90582 -53.19523,-53.45059 -8.82275,-9.3145 -9.17945,-10.28036 -9.69697,-26.25686 -0.22964,-7.08902 -0.40527,-8.85116 -0.86465,-8.67488 -0.31707,0.12167 -2.41249,1.57544 -4.65649,3.23061 -28.10121,20.7273 -61.76361,34.07115 -98.16164,38.91148 -6.76435,0.89955 -31.73268,1.30645 -41.03556,0.66874 -15.90801,-1.09048 -32.77869,-4.5451 -49.50424,-10.13701 C 98.186914,390.00129 59.685014,360.21502 34.273162,321.2592 15.195802,292.01401 4.1397127,259.59526 1.1132255,224.02737 0.05916098,211.63979 0.74680088,190.9038 2.6346891,178.14717 10.346758,126.03603 37.278335,79.103917 78.398631,46.117701 123.1623,10.208807 180.36044,-5.3989747 237.60479,2.6747666 298.75228,11.299008 353.82505,47.916814 385.74601,101.17365 c 15.60373,26.03323 24.93646,53.60481 28.61602,84.53999 0.95303,8.01239 1.31413,28.5847 0.65338,37.22328 -2.35898,30.84104 -11.16849,60.07918 -26.04041,86.42637 -3.33153,5.90216 -12.03449,19.25957 -15.74094,24.15938 l -1.98786,2.62789 11.68742,0.47467 c 11.2708,0.45774 11.77483,0.51631 14.13947,1.64285 1.34863,0.6425 4.00937,2.47279 5.91275,4.06731 4.2182,3.53371 98.05123,97.39132 102.7202,102.74713 4.33715,4.9752 5.42557,7.95637 5.40249,14.79772 -0.0188,5.53026 -1.06499,9.00196 -3.82817,12.70145 -0.98953,1.3249 -9.10305,9.72354 -18.02993,18.66365 -17.57282,17.59883 -17.88094,17.84646 -24.22645,19.46936 -4.01988,1.02812 -7.76681,1.03802 -11.27548,0.0298 z M 218.99059,335.91586 c 51.4031,-4.34878 95.37791,-39.26772 111.15489,-88.26441 2.24551,-6.9736 3.49463,-12.37748 4.75208,-20.55821 1.14343,-7.43888 1.58072,-23.74252 0.84722,-31.5874 -4.46306,-47.73352 -36.04106,-89.61863 -80.68926,-107.026384 -14.57618,-5.683064 -27.3598,-8.215984 -43.57989,-8.634825 -14.0703,-0.363332 -23.54625,0.686193 -36.30729,4.021271 -17.16126,4.485068 -35.57946,13.836964 -48.29703,24.522958 -5.58302,4.69115 -17.78106,17.32831 -21.45005,22.22223 -13.855859,18.48178 -22.816363,41.35554 -25.082315,64.02843 -0.789956,7.90417 -0.303889,27.03754 0.857834,33.76767 4.746893,27.49984 16.748996,51.0315 35.744201,70.08108 9.82465,9.85277 17.96002,15.8838 30.87767,22.8907 21.02389,11.40396 46.55787,16.61928 71.17194,14.53689 z"
     id="path442" />
  <path
     style="fill:#ffffff;stroke-width:0.437981"
     d="m 452.9703,510.29529 c -3.44157,-1.13669 -5.89606,-3.09044 -15.97659,-12.71748 -14.83597,-14.16852 -93.56068,-93.39165 -95.75142,-96.35765 -3.62365,-4.90599 -4.05099,-6.68682 -4.65929,-19.4165 -0.24357,-5.097 -0.61953,-9.44395 -0.83546,-9.65989 -0.2315,-0.23149 -2.82512,1.34444 -6.32021,3.84028 -26.6492,19.03013 -56.28487,31.25602 -89.16629,36.78464 -10.20213,1.71537 -17.81374,2.10875 -36.50357,1.88658 -17.58774,-0.20907 -20.47861,-0.4514 -33.1638,-2.77993 C 115.10621,401.6899 65.263357,368.39332 34.291476,320.82121 15.772858,292.37704 5.6685105,263.31616 1.4742253,226.43627 0.71288484,219.74189 0.84153984,198.08276 1.6992641,188.5509 5.3607565,147.86085 21.196553,109.44662 47.830396,76.646707 53.906943,69.163369 67.548563,55.332795 74.675791,49.429479 107.39411,22.329657 143.63001,6.8766799 186.142,1.8941692 c 9.32385,-1.09277789 34.45467,-1.09410169 43.79812,-0.00231 19.43365,2.2708467 37.39249,6.6765845 53.84736,13.2100518 48.53157,19.269656 87.89112,55.747021 110.59452,102.496039 8.93225,18.39258 14.60565,36.20676 18.13325,56.93755 2.08265,12.23923 2.25301,14.80757 2.25142,33.94354 -10e-4,16.64619 -0.0871,18.78455 -1.01872,25.40291 -3.90973,27.77656 -12.45603,53.62496 -24.84951,75.15765 -3.44907,5.9925 -10.22632,16.51532 -14.31899,22.23266 -1.88056,2.62708 -3.36344,4.82926 -3.2953,4.89372 0.0681,0.0645 5.14669,0.35064 11.28565,0.63592 11.62569,0.54027 12.90294,0.76174 16.47873,2.85729 2.98293,1.74811 17.04981,15.47194 58.88116,57.44522 43.93849,44.08752 48.94015,49.2306 50.55179,51.98073 3.30049,5.63196 3.25175,15.22208 -0.10923,21.48915 -1.38959,2.5911 -33.13494,34.73134 -36.56443,37.01927 -3.39869,2.26738 -6.54037,3.17011 -11.70859,3.36448 -3.68754,0.13867 -5.10016,0.007 -7.12893,-0.66275 z M 222.27813,335.72684 c 58.31932,-6.84979 103.89109,-50.65732 112.78073,-108.41461 0.97274,-6.32007 1.3924,-26.71372 0.68622,-33.34766 -2.67062,-25.08817 -13.09267,-49.33974 -29.7127,-69.13993 -4.1763,-4.97543 -12.47178,-13.08623 -17.62177,-17.22947 -15.45975,-12.437605 -36.07169,-22.018023 -55.18563,-25.650244 -9.24652,-1.75712 -12.62015,-2.013693 -26.27887,-1.998579 -11.8128,0.01305 -14.0123,0.128171 -19.00964,0.994791 -20.83871,3.613774 -40.68942,11.912545 -56.34126,23.553972 -6.43775,4.78823 -18.35478,16.39218 -24.8507,24.19782 -9.630413,11.57211 -18.989703,30.75907 -23.323154,47.81349 -2.620481,10.31297 -3.110311,14.21998 -3.359119,26.79332 -0.254944,12.8833 0.255514,21.97369 1.601132,28.51351 5.589573,27.16576 16.823304,48.30694 35.676791,67.1415 9.12995,9.12079 16.02914,14.37566 27.51601,20.95801 15.24192,8.73411 34.20195,14.59906 52.23536,16.15808 5.12618,0.44317 20.24242,0.2367 25.1866,-0.344 z"
     id="path518" />
</svg>
